<?xml version="1.0" standalone="no"?>
<!DOCTYPE svg PUBLIC "-//W3C//DTD SVG 1.1//EN" "http://www.w3.org/Graphics/SVG/1.1/DTD/svg11.dtd" >
<svg xmlns="http://www.w3.org/2000/svg">
<metadata>
Created by FontForge 20120731 at Mon Jan 25 01:30:07 2016
 By Ads
</metadata>
<defs>
<font id="iconfont" horiz-adv-x="1024" >
  <font-face 
    font-family="iconfont"
    font-weight="500"
    font-stretch="normal"
    units-per-em="1024"
    panose-1="2 0 6 3 0 0 0 0 0 0"
    ascent="896"
    descent="-128"
    x-height="792"
    bbox="0 -207 1654 878"
    underline-thickness="50"
    underline-position="-100"
    unicode-range="U+0078-E627"
  />
<missing-glyph horiz-adv-x="374" 
d="M34 0v682h272v-682h-272zM68 34h204v614h-204v-614z" />
    <glyph glyph-name=".notdef" horiz-adv-x="374" 
d="M34 0v682h272v-682h-272zM68 34h204v614h-204v-614z" />
    <glyph glyph-name=".null" horiz-adv-x="0" 
 />
    <glyph glyph-name="nonmarkingreturn" horiz-adv-x="341" 
 />
    <glyph glyph-name="x" unicode="x" horiz-adv-x="1001" 
d="M281 543q-27 -1 -53 -1h-83q-18 0 -36.5 -6t-32.5 -18.5t-23 -32t-9 -45.5v-76h912v41q0 16 -0.5 30t-0.5 18q0 13 -5 29t-17 29.5t-31.5 22.5t-49.5 9h-133v-97h-438v97zM955 310v-52q0 -23 0.5 -52t0.5 -58t-10.5 -47.5t-26 -30t-33 -16t-31.5 -4.5q-14 -1 -29.5 -0.5
t-29.5 0.5h-32l-45 128h-439l-44 -128h-29h-34q-20 0 -45 1q-25 0 -41 9.5t-25.5 23t-13.5 29.5t-4 30v167h911zM163 247q-12 0 -21 -8.5t-9 -21.5t9 -21.5t21 -8.5q13 0 22 8.5t9 21.5t-9 21.5t-22 8.5zM316 123q-8 -26 -14 -48q-5 -19 -10.5 -37t-7.5 -25t-3 -15t1 -14.5
t9.5 -10.5t21.5 -4h37h67h81h80h64h36q23 0 34 12t2 38q-5 13 -9.5 30.5t-9.5 34.5q-5 19 -11 39h-368zM336 498v228q0 11 2.5 23t10 21.5t20.5 15.5t34 6h188q31 0 51.5 -14.5t20.5 -52.5v-227h-327z" />
    <glyph glyph-name="uniE600" unicode="&#xe600;" 
d="M894 -7l-239 242q73 77 73 205t-86.5 217t-212.5 89t-215 -90t-89 -216q0 -127 88 -213.5t214 -86.5q115 0 188 57l241 -244q7 -6 16 -6t20 11q7 7 8 17.5t-6 17.5zM173 443q0 106 74 180.5t178.5 74.5t178.5 -74.5t74 -180t-74 -180t-178 -74.5q-111 0 -186 81
q-67 74 -67 173z" />
    <glyph glyph-name="uniE601" unicode="&#xe601;" 
d="M512 567q-178 0 -365 -190q-53 -54 -85 -99q2 -6 7.5 -16.5t24.5 -41t42 -57.5t61.5 -60.5t82 -57.5t104.5 -40.5t128 -16.5q229 0 378 177q50 60 73 113q-4 6 -12 16.5t-34 40.5t-54 57t-70 60.5t-84 57.5t-94.5 40.5t-102.5 16.5zM512.5 104q-93.5 0 -159.5 51t-66 123
t66 122.5t159.5 50.5t159.5 -50.5t66 -122.5t-66 -123t-159.5 -51zM512 393q-23 0 -43.5 -9t-35.5 -24.5t-24 -37t-9 -44.5q0 -48 33 -82t79.5 -34t79.5 34t33 82t-33 81.5t-80 33.5z" />
    <glyph glyph-name="uniE602" unicode="&#xe602;" 
d="M196 586q0 -9 -6.5 -16t-16.5 -7h-86q-9 0 -16 7t-7 16v86q0 10 7 16.5t16 6.5h86q4 0 7.5 -1t6.5 -3t5 -5t3 -6.5t1 -7.5v-86zM959 586q0 -9 -6.5 -16t-16.5 -7h-625q-6 0 -11.5 3t-8.5 8.5t-3 11.5v86q0 10 7 16.5t16 6.5h625q3 0 5 -0.5t4 -1.5l4 -2q2 -1 3.5 -2.5
t3 -3.5t2.5 -4t1 -5v-4v-86zM196 279q0 -9 -6.5 -16t-16.5 -7h-86q-9 0 -16 7t-7 16v86q0 6 3 11.5t8.5 8.5t11.5 3h86q7 0 12 -3t8 -8.5t3 -11.5v-86zM959 279q0 -9 -6.5 -16t-16.5 -7h-625q-5 0 -9 2t-7 5t-5 7t-2 9v86q0 10 7 16.5t16 6.5h625q10 0 16.5 -6.5t6.5 -16.5
v-86zM196 -28q0 -5 -1.5 -9t-4.5 -7t-7.5 -5t-9.5 -2h-86q-9 0 -16 7t-7 16v86q0 10 7 16.5t16 6.5h86q7 0 12 -3t8 -8.5t3 -11.5v-86zM959 -28q0 -9 -6.5 -16t-16.5 -7h-625q-9 0 -16 7t-7 16v86q0 4 1 7.5t3.5 6.5t5 5t6 3t7.5 1h625q10 0 16.5 -6.5t6.5 -16.5v-86z" />
    <glyph glyph-name="uniE603" unicode="&#xe603;" 
d="M298 383h421q17 55 62.5 89.5t104.5 34.5v2v2q0 80 -57 137t-137 57q-10 0 -20 -1t-20 -3q-58 61 -141 61q-41 0 -77.5 -16t-63.5 -45q-3 0 -6 0.5t-5.5 1t-5.5 1.5h-6q-3 1 -5 1h-6h-6q-53 0 -98 -26t-71 -70.5t-26 -97.5q0 -1 0.5 -2t0.5 -2q57 -2 101 -36t61 -88z
M905 421q-52 0 -82 -43v1l-53 -83h-520l-40 63q-8 18 -21.5 32t-32 22t-39.5 8q-41 0 -70.5 -29t-29.5 -71q0 -22 9 -42t25.5 -33.5t36.5 -19.5l62 -185q7 -21 24 -38t38 -24q-3 -9 -3 -15v-68q0 -20 14.5 -34.5t34.5 -14.5t34.5 14.5t14.5 34.5v68q0 1 -2 10h412
q-1 -1 -1 -3l-1 -7v-68q0 -10 3.5 -19t10 -15.5t16 -10.5t19.5 -4q13 0 24 6.5t18 18t7 24.5v68q0 3 -1 6t-2 8q22 5 40.5 22.5t26.5 40.5l59 185q20 7 35.5 21t24.5 33t9 41q0 27 -13.5 50t-36.5 36.5t-50 13.5z" />
    <glyph glyph-name="uniE604" unicode="&#xe604;" 
d="M601 -89l-67 67l335 335l-335 335l67 67l402 -402zM61 -22l335 335l-335 335l67 67l402 -402l-402 -402z" />
    <glyph glyph-name="uniE605" unicode="&#xe605;" 
d="M975 278q0 -12 -5.5 -22t-15.5 -15.5t-22 -5.5q-17 0 -30 12v-1l-389 390l-1 1l-389 -390q-13 -12 -31 -12t-30.5 12.5t-12.5 30.5q0 19 13 32l419 418q13 14 31 14v0h2v-1h1h1h1q16 -1 27 -13l171 -171v40q0 18 12.5 30.5t30.5 12.5t31 -12.5t13 -30.5v-127l162 -162
q5 -6 8 -13.5t3 -16.5zM888 206v-130v-58v-116q0 -18 -12.5 -31t-30.5 -13h-87v348h-174v-348h-405q-18 0 -30.5 13t-12.5 31v116v58v130l376 376zM440 206h-174v-174h174v174z" />
    <glyph glyph-name="uniE606" unicode="&#xe606;" 
d="M512 301zM67 301.5q0 90.5 35 173t94.5 142t142 94.5t173 35t173 -35t142 -94.5t95 -142t35.5 -173t-35.5 -173t-95 -142t-142 -95t-173 -35.5t-173 35.5t-142 95t-94.5 142t-35 173z" />
    <glyph glyph-name="uniE607" unicode="&#xe607;" 
d="M0 542v103q6 19 18.5 32.5t31.5 20.5h918q8 -3 14.5 -6.5t13 -8.5t10.5 -10.5t7 -12.5t4 -15q1 -16 1 -33t-0.5 -39.5t-0.5 -33.5h-20h-977zM997 443h-976h-21v-515q14 -35 29.5 -45.5t53.5 -10.5h855q29 0 46.5 8t25.5 25t8 46v469v23h-21zM413 32h-348v61h348v-61z
M476 191h-410v61h410v-61zM604 191h-93v61h93v-61z" />
    <glyph glyph-name="uniE608" unicode="&#xe608;" 
d="M163 588l61 61l637 -637l-61 -61zM800 649l61 -61l-637 -637l-61 61z" />
    <glyph glyph-name="uniE609" unicode="&#xe609;" 
d="M105 348h29q54 48 68 82q18 45 81 95q31 25 83.5 99t66.5 113q7 17 11.5 30.5t6 20t2.5 12t3 7.5q2 7 10 14t22 10.5t29 -8.5q53 -42 50 -88q0 -13 -3 -28.5t-7 -29.5t-9 -26t-9 -19q-3 -5 -8 -13.5t-11 -21t-11 -26.5t-8.5 -27t-3.5 -24.5t5 -18.5q14 -21 40 -27.5
t54 -1.5q18 3 49.5 7t73.5 8t77 2t46 -12q14 -13 20.5 -31t5.5 -31.5t-5 -23.5q-7 -12 -6.5 -21t7.5 -12q5 -2 9 -4t13 -7.5t14 -11t12 -14t7 -16.5t-3 -18q-5 -14 -12.5 -23.5t-13 -13.5t-10.5 -8t-6 -7l-2 -6q0 -2 3 -6.5t5 -6.5t5.5 -6t5.5 -7q4 -4 7.5 -10.5t7 -15.5
t3.5 -18t-3 -18q-3 -5 -7.5 -10.5t-9 -10t-10.5 -9.5t-10.5 -8.5t-9.5 -7t-7 -5.5q-4 -3 -4.5 -6t0.5 -5.5t3 -5t4.5 -5t2.5 -3.5q1 0 3.5 -3.5t4.5 -6.5t4.5 -8.5t3 -11t0 -11.5t-4.5 -12.5t-11 -12.5q-24 -20 -73.5 -37t-84.5 -20q-37 -3 -92.5 -5.5t-144.5 3t-139 22.5
q-36 12 -64.5 23.5t-39 17t-22 9t-25.5 4.5l-64 2z" />
    <glyph glyph-name="uniE60A" unicode="&#xe60a;" 
d="M512 754q-61 0 -119 -16t-107 -45t-90.5 -70t-70.5 -90.5t-45 -107.5t-16 -119q0 -91 35.5 -174t95.5 -143t143 -95.5t174 -35.5t174 35.5t143 95.5t95.5 143t35.5 174.5t-35.5 174t-95.5 142.5t-143 95.5t-174 35.5zM509 -73q-105 0 -193 51.5t-139.5 140t-51.5 193
t51.5 192.5t139.5 139.5t192.5 51.5t193 -51.5t140 -139.5t51.5 -193q0 -35 -6.5 -69t-18 -65t-28 -59.5t-38 -53.5t-46.5 -46.5t-53.5 -38t-59.5 -28t-65 -18t-69 -6.5zM365 525v-1l1 1h-1zM365 85l2 2l-2 1v-3zM701 305q0 21 -16 34v1l-255 148l-1 -1q-9 5 -19 5
q-18 0 -31 -12t-14 -30v-288q0 -18 13 -31t32 -13q3 0 5.5 0.5t5.5 1t5.5 1.5t4.5 3l254 146v1q16 13 16 34z" />
    <glyph glyph-name="uniE60B" unicode="&#xe60b;" 
d="M101 663v141l816 -475v-49l-816 -475v140l631 359z" />
    <glyph glyph-name="uniE60C" unicode="&#xe60c;" 
d="M92 272h392v-392q0 -12 8 -20t20 -8t20 8t8 20v392h392q6 0 11 2t9 6t6 9t2 11q0 12 -8 20t-20 8h-392v392q0 3 -0.5 6t-2 6t-3.5 5.5t-4.5 4.5t-5 3.5t-6 2t-6.5 0.5q-8 0 -14.5 -4t-10 -10.5t-3.5 -13.5v-392h-392q-12 0 -20 -8t-8 -20t8 -20t20 -8z" />
    <glyph glyph-name="uniE60D" unicode="&#xe60d;" 
d="M120 344q-19 0 -31.5 -11t-12.5 -26q0 -10 6 -18.5t16 -13.5t22 -5h808q18 0 31 11t13 26q0 10 -6 18.5t-16 13.5t-22 5h-808z" />
    <glyph glyph-name="uniE60E" unicode="&#xe60e;" horiz-adv-x="1147" 
d="M1038 717h-931l-97 -253q0 -28 11 -53.5t30 -44t45 -29.5t54 -11q59 0 100.5 40t41.5 98q0 -57 41 -97.5t99 -40.5q59 0 100.5 40t41.5 98q0 -57 41 -97.5t99 -40.5t99 40t41 98q0 -57 41.5 -97.5t100.5 -40.5q29 0 55 10.5t45 29t30.5 44.5t11.5 54zM961 282v-322h-774
v322h-80v-338q0 -22 20 -43.5t41 -21.5h810q14 0 28.5 10t24 25.5t9.5 29.5v338h-79zM1038 719l3 -3zM171 782h806q20 0 34 13.5t14 34.5q0 13 -6.5 24.5t-17.5 17.5t-24 6h-806q-20 0 -34 -14t-14 -34.5t14 -34t34 -13.5z" />
    <glyph glyph-name="uniE60F" unicode="&#xe60f;" 
d="M291 716q7 0 16 -1t26 -4.5t33 -12t33 -21t32 -34t25 -48.5q4 -10 10.5 -17.5t16 -12t19.5 -5.5h4q7 0 14 2t13 5.5t11 8.5t9 12q25 46 70 84q52 44 103 44q69 0 144 -81q30 -49 34 -107q7 -121 -122 -216q-9 -5 -22 -13t-38 -24.5t-50.5 -35.5t-54.5 -42t-57 -50.5
t-49 -54.5q-102 137 -250 200q-7 3 -16 8.5t-29 20.5t-36 33q-76 83 -56 193v2v2q4 40 29 82q45 79 136 83h2zM291 769h-4q-31 -1 -58.5 -9.5t-47 -20.5t-36.5 -29t-28 -33t-19.5 -34.5t-13.5 -32.5t-8 -28t-4 -18.5t-1 -7.5q-8 -46 -2.5 -85.5t19.5 -71.5t33.5 -57
t39.5 -43.5t38 -31t28.5 -18t11.5 -5.5q54 -23 101 -57t76.5 -66t51 -61t32.5 -46.5t12 -17.5t1 2q18 38 55.5 80t77.5 74.5t78.5 59.5t62.5 42l24 14q174 126 141 298q-11 61 -40 101q-92 102 -186 102q-28 0 -54.5 -8.5t-47.5 -22.5t-40.5 -30.5t-33 -33t-24 -30.5
t-15.5 -22l-5 -9q-15 42 -41 73.5t-50.5 46.5t-53.5 24t-43.5 10.5t-26.5 1.5z" />
    <glyph glyph-name="uniE610" unicode="&#xe610;" 
d="M511 50q-41 0 -83 7l-197 -119v198q-78 55 -123 134.5t-45 170.5q0 80 35.5 152.5t95.5 125t143 83.5t174 31t174 -31t143 -83.5t95.5 -125t35.5 -152.5q0 -106 -60 -196t-163 -142.5t-225 -52.5zM513 809q-85 0 -163 -29t-134 -78.5t-89.5 -117.5t-33.5 -143
q0 -92 48.5 -171t130.5 -130l-1 -142l141 86q51 -11 101 -11q114 0 210.5 49.5t153 134t56.5 184.5q0 75 -33.5 143t-89.5 117.5t-134 78.5t-163 29zM735 386q-15 0 -28 7t-20.5 20t-7.5 28q0 12 4.5 22.5t12 18t18 11.5t21.5 4q23 0 39.5 -16t16.5 -39.5t-16.5 -39.5
t-39.5 -16zM511 386q-23 0 -39.5 16t-16.5 39.5t16.5 39.5t39.5 16t39.5 -16t16.5 -39.5t-16.5 -39.5t-39.5 -16zM287 386q-23 0 -39.5 16t-16.5 39.5t16.5 39.5t39.5 16q9 0 18 -2.5t15.5 -8t12 -12t8 -15t2.5 -18.5q0 -15 -7.5 -28t-20 -20t-28.5 -7zM287 386z" />
    <glyph glyph-name="uniE611" unicode="&#xe611;" horiz-adv-x="1654" 
d="M1654 522l-827 -318l-827 318h1654z" />
    <glyph glyph-name="uniE612" unicode="&#xe612;" 
d="M625 372q64 32 102.5 93t38.5 135q0 42 -13 81t-36.5 70t-55 55t-70.5 36.5t-80 12.5q-106 0 -181 -74.5t-75 -180.5q0 -44 15 -85.5t41.5 -74.5t62.5 -55q3 -3 7 -5t7.5 -4t7.5 -4q-154 -39 -254 -165.5t-100 -289.5h938q0 163 -100.5 289.5t-254.5 165.5z" />
    <glyph glyph-name="uniE613" unicode="&#xe613;" 
d="M512 825q-36 0 -71.5 -5.5t-68 -16.5t-63 -27t-58 -36t-51.5 -44t-44 -51.5t-36 -58t-27 -63t-16.5 -68t-5.5 -71.5q0 -90 35 -171.5t94 -140.5t140.5 -94t171.5 -35q51 0 101 11.5t93.5 33t81.5 52t68.5 68.5t52 81.5t33 93.5t11.5 101q0 90 -35 171.5t-94 140.5
t-140.5 94t-171.5 35zM714 240q12 -12 12 -29t-12 -29t-29 -12t-29 12l-144 144l-144 -144q-8 -8 -18.5 -10.5t-21 0t-18.5 10.5q-5 5 -8 10.5t-3.5 12t0 12.5t3.5 12t8 11l144 144l-144 144q-8 8 -10.5 18.5t0 21t10.5 18.5q12 12 29 12t29 -12l144 -144l144 144
q12 12 29 12t29 -12t12 -29t-12 -29l-144 -144z" />
    <glyph glyph-name="uniE614" unicode="&#xe614;" 
d="M1009 599l-141 -301q-12 -25 -40 -27l-406 -26l24 -64h442q39 0 66.5 -26.5t27.5 -64.5q0 -24 -13 -45t-34.5 -33t-46.5 -12q-39 0 -66.5 26.5t-27.5 63.5h-439q0 -37 -27.5 -63.5t-66 -26.5t-66 26.5t-27.5 63.5q0 25 12.5 45.5t34 33t47.5 12.5h84l-180 497h-108
q-19 0 -33 13t-14 32q0 12 6.5 22.5t17 16.5t23.5 6h141q15 0 27 -8.5t17 -21.5l28 -75h695q8 0 15 -2.5t12.5 -6.5t10 -9.5t7 -12.5t2.5 -15q0 -4 -1 -9t-3 -9zM303 572l87 -238l404 25l99 213h-590z" />
    <glyph glyph-name="uniE615" unicode="&#xe615;" 
d="M256 632l510 -320l-510 -321v641z" />
    <glyph glyph-name="uniE616" unicode="&#xe616;" 
d="M766 -9l-510 321l510 320v-641z" />
    <glyph glyph-name="uniE617" unicode="&#xe617;" 
d="M-53 853zM512 783q24 0 46.5 -7t42.5 -21t36 -33.5t27.5 -43t18 -51t6.5 -57.5h141l71 -777h-778l71 777h141q0 59 24 108t64 77t89 28zM516 292l-54 -115l-127 -17l93 -87l-24 -126l112 62l113 -62l-24 126l92 87l-127 17zM676 494q-5 -17 -13 -33t-18 -30q4 -1 6.5 -2
t6.5 -1q15 0 25 10.5t10 26.5q0 18 -17 29zM380 430q-5 5 -8 10l-7 13l-6 12q-4 6 -6.5 12.5t-4.5 13.5q-6 -4 -9.5 -11.5t-3.5 -14.5q0 -16 10.5 -26.5t25.5 -10.5q4 0 9 2zM353 570h325q0 82 -47.5 140t-115 58t-115 -58t-47.5 -140zM371 500q-4 0 -8 -1q6 -17 13.5 -33
t17.5 -29q2 2 4.5 5.5t4 6.5t2.5 7t1 9q0 25 -25 33q-6 1 -10 2zM658 500q-9 0 -17.5 -5t-13.5 -13.5t-5 -16.5q0 -18 15 -29q10 13 17.5 29t13.5 33q-3 1 -5 1.5t-5 0.5z" />
    <glyph glyph-name="uniE618" unicode="&#xe618;" 
d="M622 288v0l-215 448l-23 -11l209 -437l-209 -436l23 -11z" />
    <glyph glyph-name="uniE619" unicode="&#xe619;" 
d="M622 725l-24 11l-214 -448l214 -447l24 11l-209 436z" />
    <glyph glyph-name="uniE61A" unicode="&#xe61a;" 
d="M863 559l-351 -351l-351 352z" />
    <glyph glyph-name="uniE61B" unicode="&#xe61b;" 
d="M184 333l2 2q4 4 4 7q0 5 -7 6l-56 6l-21 48q-3 7 -8 7t-8 -7l-21 -49l-56 -5q-5 -1 -6 -6q0 -4 5 -9q39 -34 40 -34q-13 -50 -14 -54q0 -2 1.5 -4t3.5 -3t5 0q5 3 50 29l48 -27q4 -2 5 -2q3 0 5 1.5t2 4.5q-1 4 -12 55v0zM390 333q6 6 6 9t-1.5 4t-5.5 2l-56 6l-20 48
q-4 7 -8 7q-6 0 -9 -7l-21 -49l-56 -5q-5 -1 -6 -6q0 -2 1.5 -4.5t3.5 -4.5l40 -34q-1 -1 -1.5 -3t-1.5 -7l-2 -10q-1 -5 -2.5 -11t-3 -10.5t-2.5 -8t-1 -4.5q-1 -4 3 -6.5t7 -0.5q5 3 51 29l47 -27l5 -2q3 0 5 1.5t2 4.5l-12 55zM598 333q5 6 5 9q0 5 -6 6l-57 6l-20 48
q-3 7 -8 7q-6 0 -9 -7l-21 -49l-56 -5q-4 -2 -5 -6t5 -9l39 -34l-13 -54q-1 -4 2.5 -6.5t6.5 -0.5q2 1 7.5 4t13 7.5t14 8.5t11.5 6l5 3l47 -27q4 -2 6 -2q6 2 6 6t-11 55v0zM804 333q5 6 5 9q-2 5 -6 6l-57 6l-20 48l-2 3q0 1 -2 2.5t-4 1.5q-6 0 -8 -7l-21 -49l-57 -5
q-4 -1 -5 -6q-1 -2 0.5 -4.5t4.5 -4.5q1 -1 39 -34q-12 -50 -13 -54t2.5 -6.5t7.5 -0.5l50 29l47 -27q4 -2 6 -2q3 0 5 1.5t1 4.5q0 4 -11 55v0zM1010 333q6 6 6 9q-2 5 -7 6l-56 6l-20 48l-1 3q-1 1 -3 2.5t-4 1.5q-6 0 -9 -7l-21 -49l-56 -5q-5 -1 -5 -6q-1 -2 0.5 -4.5
t3.5 -4.5q2 -1 40 -34v0l-14 -54q0 -4 3.5 -6.5t6.5 -0.5l51 29l47 -27q4 -2 5 -2q4 0 5.5 1.5t1.5 4.5q-1 4 -11 55v0z" />
    <glyph glyph-name="uniE61C" unicode="&#xe61c;" 
d="M1018 -31q0 -9 -4 -16t-11.5 -11.5t-15.5 -4.5h-235q13 3 22 14t9 24v1q0 5 -0.5 15t-6.5 37.5t-15.5 51t-31 49.5t-51.5 41q-10 5 -18.5 9t-14 6t-10.5 3t-8.5 1.5t-8.5 1.5t-9 2v62l-3 3q-1 1 -5.5 7.5t-8.5 14t-8.5 21.5t-6.5 31q-10 -3 -15 7.5t-6 24.5q0 2 -1 11
t-1 15t0.5 13.5t3 11t8.5 1.5q-7 52 -5 68q1 18 10.5 35.5t25 32t38 24t48.5 10.5q40 -2 67.5 -17.5t39.5 -37t15 -47.5q0 -9 -1.5 -25.5t-4.5 -42.5q5 2 8 -1.5t3.5 -11t0.5 -13.5t-1 -15t-1 -11q-1 -14 -6 -24.5t-16 -7.5q-2 -16 -6 -30t-8 -22.5t-8 -14t-7 -8.5l-3 -2
l1 -62q16 -8 81 -35q31 -13 50.5 -16.5t46.5 -16.5q71 -35 83 -138q1 -11 1 -18zM546 180q35 -15 56 -18.5t51 -18.5q26 -13 45 -35.5t27.5 -43.5t13.5 -45t5.5 -33t0.5 -14v0q0 -7 -2.5 -13.5t-7 -11t-11 -7.5t-13.5 -3h-670q-14 0 -24 10t-10 25v0q0 5 0.5 13.5t5.5 33
t13.5 45t27.5 44t45 35.5q29 15 50.5 18t56.5 17q20 9 36.5 16t26 11.5t16 7.5t8.5 4l2 1l1 68l-2 2l-4 4q-3 3 -5.5 7.5t-6.5 11.5t-7 15t-6 20t-4 25q-12 -3 -17.5 8.5t-6.5 26.5q0 2 -1 12t-1 16.5t0.5 15t3.5 12t9 2.5q-8 56 -6 75q4 42 41.5 75t93.5 36
q64 -2 96.5 -34.5t36.5 -76.5q2 -17 -6 -75q6 1 9.5 -2.5t4 -12t0 -15t-1.5 -16.5t-1 -12q-1 -15 -6.5 -26.5t-16.5 -8.5q-2 -13 -5 -24.5t-6 -20t-6.5 -15.5t-6.5 -11.5t-6 -7.5l-4 -4l-2 -1l1 -68l86 -38l1 -1h2z" />
    <glyph glyph-name="uniE61D" unicode="&#xe61d;" 
d="M1024 216q0 -6 -3 -10.5t-8 -7.5t-10 -3h-64v-276q0 -17 -8.5 -32t-23.5 -23.5t-32 -8.5h-721q-27 0 -45.5 19t-18.5 45v276h-64q-9 0 -15 6t-6 15v212q0 9 6 15.5t15 6.5h292q-17 0 -34 3.5t-31.5 11t-27.5 17.5t-23 23t-17.5 27.5t-11.5 31.5t-4 34q0 41 20 75t54.5 54
t74.5 20q13 0 26 -2.5t25 -6.5t23 -10t20.5 -14.5t16.5 -17.5l85 -110l85 110q20 24 49 37.5t63 13.5q61 0 104.5 -43.5t43.5 -105.5q0 -40 -19.5 -74.5t-54 -54t-74.5 -19.5h292q4 0 8 -2t6.5 -4.5t4.5 -6.5t2 -9v-212zM447 535l-83 106q-7 8 -19 14.5t-27 6.5
q-26 0 -45 -18.5t-19 -45t19 -45t45 -18.5h129zM620 12v310v128h-212v-128v-310v-37q0 -17 12 -26t31 -9h127q18 0 30 9t12 26v37zM711 662q-29 0 -46 -21l-83 -106h129q26 0 44.5 18.5t18.5 44.5q0 17 -8.5 32t-23 23.5t-31.5 8.5z" />
    <glyph glyph-name="uniE61E" unicode="&#xe61e;" 
d="M813 87q-4 2 -51.5 26.5t-87.5 38t-91 19.5q10 8 18 18t16.5 28t13 28.5t16 40t15.5 40.5v2l1 1q12 -2 18 2q10 6 16 32t6 46q0 15 -4 22.5t-8 7.5l-4 1h-1v2v6q0 8 1 25.5t1.5 31t-0.5 29t-4 25.5q-3 12 -6.5 28t-5.5 22.5t-7 15.5t-13 18q-29 31 -88 51t-121 7
q-18 -4 -27 -13t-9.5 -17t-2.5 -14.5t-7 -6.5q-10 1 -18 -5t-13.5 -13.5t-11.5 -21.5t-9 -24.5t-8 -26.5q-3 -13 -3.5 -32t0.5 -45t1 -34q0 -2 1 -5v-3h-2h-2q-1 0 -2 -0.5t-2.5 -1.5t-3 -2.5t-3 -3.5t-2 -5.5t-1 -8t-0.5 -9.5q0 -20 6 -46t16 -32q6 -4 18 -2q1 0 2 -1v-2
q5 -13 15.5 -41.5t15.5 -39.5t13.5 -28.5t16.5 -28t18 -17.5q-40 -5 -79 -17.5t-59 -21.5t-52 -26q-9 -4 -13.5 -6.5t-11.5 -5.5l-13 -7q-91 -41 -107 -92q-1 -5 -1 -9v-89h819v89q0 24 -34 54q-29 27 -75 47z" />
    <glyph glyph-name="uniE61F" unicode="&#xe61f;" 
d="M512 730q-61 0 -119 -16.5t-107 -47.5t-89 -73l-1 1l-10 -13q-24 -29 -43.5 -61t-33 -67.5t-20.5 -74t-7 -78.5q0 -160 105 -282l9 -11h1q60 -64 142 -100.5t173 -36.5q117 0 216 57.5t156.5 156.5t57.5 216t-57.5 216t-156.5 156.5t-216 57.5zM536 457q88 3 167 26
q23 -73 27 -159h-194v133zM536 506v173q46 -9 84.5 -48.5t65.5 -101.5q-71 -20 -150 -23zM488 679v-174q-27 1 -53 4t-50 7.5t-48 11.5q18 41 41 73t51 52t59 26zM488 457v-133h-194q4 85 26 158q80 -23 168 -25zM246 324h-114q7 114 75 205q32 -19 67 -32q-25 -80 -28 -173
zM246 276q3 -93 28 -173q-35 -13 -67 -31q-68 90 -75 204h114zM294 276h194v-132q-90 -3 -168 -25q-22 72 -26 157zM488 95v-174q-31 6 -59 26.5t-51 52t-41 73.5q70 19 151 22zM536 -79v174q81 -3 150 -23q-6 -16 -13.5 -30t-15.5 -27t-17 -24t-18.5 -21t-20 -18t-21 -14
t-21.5 -10.5t-23 -6.5zM536 143v133h194q-4 -86 -26 -159q-78 23 -168 26zM778 276h114q-7 -115 -77 -207q-29 18 -65 32q25 81 28 175zM778 324q-3 94 -28 175q17 7 33.5 15t31.5 17q70 -92 77 -207h-114zM783 569q-4 -3 -8 -5l-8 -4l-8 -4q-4 -2 -9 -4l-8 -4q-5 -2 -9 -3
q-12 29 -27.5 54.5t-33.5 46.5q63 -29 111 -77zM352 646q-37 -44 -62 -103q-25 9 -51 24q49 49 113 79zM239 34q25 13 51 23q25 -59 62 -103q-32 15 -60.5 35t-52.5 45zM672 -46q36 43 61 101q27 -10 50 -23q-24 -24 -52 -43.5t-59 -34.5z" />
    <glyph glyph-name="uniE620" unicode="&#xe620;" 
d="M151 -85h48v-48h626v48h48v48h-722v-48zM728 492v145h-48v48h-48v48h-240v-48h-48v-48h-48v-145h-145v-481h722v481h-145zM632 492h-240v145h240v-145z" />
    <glyph glyph-name="uniE621" unicode="&#xe621;" 
d="M956 363q-11 116 -104 194q-52 44 -121 70q-9 -12 -20 -22q-3 -3 -6 -5l-6 -6q-3 -2 -7 -4l-6 -4l-8 -4q20 -6 37 -13q9 -4 12 -13t-2 -16q-4 -7 -12.5 -9.5t-16.5 0.5q-91 39 -210 23q-5 -1 -10.5 1t-9.5 5.5t-5 9.5q-2 5 0 10.5t7 9.5t11 5q13 2 26 3q-4 3 -8 7
q-22 19 -33 44l-2 5l-12 -2l-12 -2q-6 -1 -12 -3q-79 43 -197 32q-15 -1 -23 -13.5t-1 -25.5l41 -77q-70 -55 -99 -129h-50q-8 0 -15 -3.5t-11 -10t-4 -14.5v-101q0 -17 16 -25l65 -31q23 -57 51.5 -95t79.5 -66v-42q0 -20 1 -31t4.5 -25.5t12.5 -21.5t24 -7h127
q9 0 23 15.5t19 26.5v43q0 -1 13.5 -1.5t32.5 -0.5h38q19 0 31.5 0.5t11.5 1.5l21 -53q0 -14 10.5 -23t25.5 -9h90q21 0 31 17q7 12 16 27l17 27l16 28q9 15 16.5 28t15.5 27.5t15.5 28t15 27.5t14 28.5t13.5 28.5q29 65 22 135zM310 386q-9 0 -17.5 3.5t-14.5 9t-9.5 13
t-3.5 16t3.5 16t9.5 13t14.5 9t17.5 3.5q19 0 32.5 -12t13.5 -29.5t-13.5 -29.5t-32.5 -12zM542 603q26 -7 54 -7q14 0 28 1q57 8 91 42q29 28 29 63q0 21 -11.5 40.5t-31.5 34t-47.5 22.5t-57.5 8q-20 0 -39 -3.5t-35.5 -10.5t-30 -16.5t-23 -21.5t-15 -25.5t-5.5 -27.5
q0 -23 13 -43q5 -10 13.5 -18.5t19 -15.5t22.5 -12.5t26 -9.5z" />
    <glyph glyph-name="uniE622" unicode="&#xe622;" 
d="M327 199h-73v-73h73v73zM327 642h-73v-73h73v73zM770 642h-73v-73h73v73zM180 52v221h221v-221h-221zM180 495v221h221v-221h-221zM623 495v221h221v-221h-221zM475 347h-369v-369h369v369zM770 52h-73v-74h73v74zM918 52h-74v-74h74v74zM918 347h-74v-74h-74v74h-221
v-369h74v221h74v-73h221v221zM475 790h-369v-369h369v369zM918 790h-369v-369h369v369z" />
    <glyph glyph-name="uniE623" unicode="&#xe623;" 
d="M444 236q-180 169 -131 215q4 3 10 9q15 14 22 21t17 20t12 22.5t3 24.5t-6 30t-19.5 35.5t-32.5 43.5q-19 22 -37 35t-32.5 19t-32 3.5t-28 -5.5t-27 -15t-24 -18.5t-24 -22.5t-20.5 -21q-20 -18 -24 -54t10 -86.5t43.5 -108.5t82.5 -126t121 -132t140 -113t134 -77
t116 -41t92 -9.5t58 22.5q4 4 21.5 19.5t24 22t19.5 22t16.5 25.5t6 26.5t-4 30t-20.5 31t-37 34.5q-95 72 -151 48q-21 -8 -64 -49q-2 -3 -4 -4q-49 -46 -230 123v0zM444 236z" />
    <glyph glyph-name="uniE624" unicode="&#xe624;" 
d="M731 -59l-363 363l358 358q10 9 13 22t0 25.5t-12.5 22.5t-22.5 13t-26 0t-22 -13l-388 -388q-1 -1 -2 -1.5t-1 -1.5l-3 -3q-15 -15 -15 -36t15 -36l397 -397q10 -10 23 -13.5t26 0t23 13.5q15 15 15 36t-15 36z" />
    <glyph glyph-name="uniE625" unicode="&#xe625;" 
d="M758 392l-62 62l-184 -185l-184 185l-62 -62l185 -184l61 -62l61 62z" />
    <glyph glyph-name="uniE626" unicode="&#xe626;" 
d="M758 208l-246 246l-246 -246l62 -62l184 185l184 -185z" />
    <glyph glyph-name="uniE627" unicode="&#xe627;" 
d="M928 -19h-830q-5 0 -9 1t-7.5 3t-6.5 4t-5.5 5.5t-4.5 7t-3 7.5t-1 8t1 7.5t2.5 6.5t3.5 6t4 5.5t5 4.5t6.5 3.5t7 2t7.5 0.5h54v289h54v-289h217v307h36v-307h379v289h54v-289h36q15 0 26 -10.5t11 -25.5t-11 -25.5t-26 -10.5zM497 213l134 134l14 -11l-135 -136z
M790 245l-135 -135l-13 13l134 133zM515 123l218 217l12 -13l-217 -217zM319 301q0 13 9.5 22.5t23 9.5t23 -9.5t9.5 -22.5q0 -18 -15 -27v-108q4 -3 7.5 -7.5t5.5 -9.5t2 -11q0 -13 -9.5 -22.5t-23 -9.5t-23 9.5t-9.5 22.5q0 17 13 27v110q-13 9 -13 26zM880 381
q-18 0 -32.5 9.5t-24 25.5t-10.5 35h-13q-1 -29 -20.5 -49.5t-45.5 -20.5q-18 0 -33 9.5t-24 25.5t-10 35h-13q-1 -19 -10 -35t-24 -25.5t-32.5 -9.5t-32.5 9.5t-24 25.5t-10 35h-13q-2 -29 -21 -49.5t-45.5 -20.5t-45.5 20.5t-21 49.5h-13q-2 -29 -21 -49.5t-45.5 -20.5
t-45.5 20.5t-21 49.5h-13q-2 -29 -21 -49.5t-45.5 -20.5t-45.5 20.5t-21 49.5h-3v18h867v-18h-1q-1 -29 -20.5 -49.5t-45.5 -20.5zM163 740h700l84 -253h-867zM802 505h36l-54 217h-36zM658 505h36l-34 217h-36zM495 505h36v217h-36v-217zM371 505l34 217h-36l-34 -217h36z
M227 505l54 217h-36l-54 -217h36zM152 794h722v-36h-722v36z" />
  </font>
</defs>
</svg>
